# xmcd
#
# Track frame offsets: 
#        150
#        21043
#        42260
#        63358
#        83577
#        111178
#        134109
#        151128
#        169583
#        188318
#        204799
#
# Disc length: 2947 seconds
#
# Revision: 0
# Processed by: cddbd v1.5.2PL0 Copyright (c) Steve Scherf et al.
# Submitted via: ExactAudioCopy v0.95b4
#
DISCID=7f0b810b
DTITLE=The Wrenfields - Seconds
DYEAR=2002
DGENRE=Alt. Country
TTITLE0=Every Now and Then
TTITLE1=We Must Say Goodbye
TTITLE2=I Felt Rain
TTITLE3=Carry Me Away
TTITLE4=Patriot's Day (Katie Bar the Door)
TTITLE5=Gonna Be Happy
TTITLE6=Lovesick
TTITLE7=Worthless
TTITLE8=Souvenir Smile
TTITLE9=Mother Nature Girl
TTITLE10=Never Once Alone
EXTD=
EXTT0=
EXTT1=
EXTT2=
EXTT3=
EXTT4=
EXTT5=
EXTT6=
EXTT7=
EXTT8=
EXTT9=
EXTT10=
PLAYORDER=
